<svg xmlns="http://www.w3.org/2000/svg" viewBox="0 0 32 32" role="img" aria-label="SpecPowers icon">
  <rect width="32" height="32" rx="8" fill="#111827"/>
  <path d="M9 11.5C9 9.57 10.57 8 12.5 8H19.5C21.43 8 23 9.57 23 11.5C23 13.43 21.43 15 19.5 15H12.5C10.57 15 9 13.43 9 11.5Z" fill="#F9FAFB"/>
  <path d="M9 20.5C9 18.57 10.57 17 12.5 17H19.5C21.43 17 23 18.57 23 20.5C23 22.43 21.43 24 19.5 24H12.5C10.57 24 9 22.43 9 20.5Z" fill="#60A5FA"/>
  <path d="M12 11.5H20" stroke="#111827" stroke-width="1.5" stroke-linecap="round"/>
  <path d="M12 20.5H20" stroke="#F9FAFB" stroke-width="1.5" stroke-linecap="round"/>
</svg>
